# xmcd
#
# Track frame offsets: 
#        150
#        14185
#        28315
#        41867
#        56467
#        69845
#        83477
#        96380
#        109950
#        122445
#        135985
#        147582
#        159847
#        173205
#        186600
#        200575
#        213807
#        227147
#        239810
#        253132
#        266087
#        280240
#        293310
#        306800
#        320352
#
# Disc length: 4468 seconds
#
# Revision: 1
# Processed by: cddbd v1.5.1PL0 Copyright (c) Steve Scherf et al.
# Submitted via: ExactAudioCopy v0.95a5
#
DISCID=78117219
DTITLE=Various Artist - Rare 1930's and 1940's Blues (1937-1948) 
DYEAR=1900
DGENRE=Blues
TTITLE0=Charley West - Rollin' Stone Blues
TTITLE1=Charley West - Ethel May
TTITLE2=Charley West - Hobo Blues
TTITLE3=Poor Charlie - Hand Me Down My Old Suitcase
TTITLE4=Poor Charlie - My Little Machine [take 1]
TTITLE5=Poor Charlie - My Little Machine [take 2]
TTITLE6=Willie (Boodle It) Right - My Blues Come Down at Midnight
TTITLE7=Willie (Boodle It) Right - Down South Blues
TTITLE8=Willie (Boodle It) Right - Little Bee
TTITLE9=Willie (Boodle It) Right - Two by Four Blues
TTITLE10=Willie (Boodle It) Right - West Texas Blues
TTITLE11=Willie (Boodle It) Right - Sunnyland Blues
TTITLE12=Willie (Boodle It) Right - Mean Old Captain
TTITLE13=The Florida Kid - That's All Right, Baby
TTITLE14=The Florida Kid - Teenage Girl Blues
TTITLE15=The Florida Kid - Hitler Blues
TTITLE16=The Florida Kid - Back Log Blues
TTITLE17=The Florida Kid - Lazy Mule Blues
TTITLE18=The Florida Kid - I Can Drive
TTITLE19=The Florida Kid - Baby, Take Me Back
TTITLE20=The Florida Kid - I'm Going Back on the Farm
TTITLE21=Bob White "The Woogie Man" - I'm the Woogie Man
TTITLE22=Bob White "The Woogie Man" - Pullet and Hen Blues
TTITLE23=Detroit Count - Hastings Street Opera, Pt. 1
TTITLE24=Detroit Count - Hastings Street Opera, Pt. 2
EXTD=
EXTT0=
EXTT1=
EXTT2=
EXTT3=
EXTT4=
EXTT5=
EXTT6=
EXTT7=
EXTT8=
EXTT9=
EXTT10=
EXTT11=
EXTT12=
EXTT13=
EXTT14=
EXTT15=
EXTT16=
EXTT17=
EXTT18=
EXTT19=
EXTT20=
EXTT21=
EXTT22=
EXTT23=
EXTT24=
PLAYORDER=
